#N canvas 437 20 1149 513 12;
#X obj 102 424 mrpeach/udpsend;
#X obj 102 449 tgl 20 0 empty empty empty 0 -10 0 12 #fcfcfc #000000 #000000 0 1;
#X obj 102 259 r EnviaOSC;
#X msg 129 343 connect 192.168.1.140 9001;
#X obj 102 284 mrpeach/packOSC;
#X msg 159 382 connect 192.168.1.108 9001;
#N canvas 113 48 1524 930 PAINEL_1 0;
#X msg 98 92 /objects/palmeira/hide_viewport \$1;
#X obj 98 121 s EnviaOSC;
#X obj 98 22 tgl 20 0 empty empty empty 0 -10 0 12 #fcfcfc #000000 #000000 0 1;
#X obj 98 47 == 0;
#X obj 445 167 s EnviaOSC;
#X msg 445 131 /materials/palmeira.001/grease_pencil/fill_color \$1 \$2 \$3 \$4, f 61;
#X obj 445 93 pack f f f f;
#X msg 445 13 1 0 0 1;
#X msg 465 43 0 1 0 1;
#X obj 88 -35 metro 2000;
#X obj 91 -79 tgl 20 0 empty empty empty 0 -10 0 12 #fcfcfc #000000 #000000 0 1;
#X floatatom 186 -73 5 0 0 0 - - - 0;
#X obj 108 441 s EnviaOSC;
#X obj 108 342 tgl 20 0 empty empty empty 0 -10 0 12 #fcfcfc #000000 #000000 0 1;
#X obj 108 367 == 0;
#X obj 98 285 metro 2000;
#X obj 101 241 tgl 20 0 empty empty empty 0 -10 0 12 #fcfcfc #000000 #000000 0 1;
#X floatatom 196 247 5 0 0 0 - - - 0;
#X msg 108 412 /objects/trrees/hide_viewport;
#X obj 438 441 s EnviaOSC;
#X obj 438 342 tgl 20 0 empty empty empty 0 -10 0 12 #fcfcfc #000000 #000000 0 1;
#X obj 438 367 == 0;
#X obj 428 285 metro 2000;
#X obj 431 241 tgl 20 0 empty empty empty 0 -10 0 12 #fcfcfc #000000 #000000 0 1;
#X floatatom 526 247 5 0 0 0 - - - 0;
#X msg 438 412 /objects/Agua/hide_viewport;
#X obj 728 441 s EnviaOSC;
#X obj 728 342 tgl 20 0 empty empty empty 0 -10 0 12 #fcfcfc #000000 #000000 0 1;
#X obj 728 367 == 0;
#X obj 718 285 metro 2000;
#X obj 721 241 tgl 20 0 empty empty empty 0 -10 0 12 #fcfcfc #000000 #000000 0 1;
#X floatatom 816 247 5 0 0 0 - - - 0;
#X msg 728 412 /objects/Branco1/hide_viewport;
#X obj 553 -299 vsl 20 170 0 1 0 0 empty empty empty 0 -9 0 12 #fcfcfc #000000 #000000 0 1;
#X obj 905 167 s EnviaOSC;
#X msg 905 131 /materials/palmeira.001/grease_pencil/fill_color \$1 \$2 \$3 \$4, f 61;
#X obj 905 93 pack f f f f;
#X msg 897 -16 1 0 0 1;
#X msg 917 14 0 1 0 1;
#X msg 963 50 1 1 1 \$1;
#X obj 1059 -78 vsl 20 170 0 1 0 0 empty empty empty 0 -9 0 12 #fcfcfc #000000 #000000 0 1;
#X floatatom 617 -135 5 0 0 0 - - - 0;
#X msg 516 -94 1 0 0 \$1;
#X obj 692 -305 vsl 20 170 0 1 0 0 empty empty empty 0 -9 0 12 #fcfcfc #000000 #000000 0 1;
#X floatatom 756 -141 5 0 0 0 - - - 0;
#X msg 655 -100 1 1 1 \$1;
#X obj 1025 707 s EnviaOSC;
#X obj 1025 633 pack f f f f;
#X msg 886 574 1 0 0 1;
#X msg 958 566 0 1 0 1;
#X obj 1106 375 vsl 20 170 0 1 0 0 empty empty empty 0 -9 0 12 #fcfcfc #000000 #000000 0 1;
#X floatatom 1170 539 5 0 0 0 - - - 0;
#X msg 1069 580 1 0 0 \$1;
#X obj 1245 369 vsl 20 170 0 1 0 0 empty empty empty 0 -9 0 12 #fcfcfc #000000 #000000 0 1;
#X floatatom 1309 533 5 0 0 0 - - - 0;
#X msg 1208 574 1 1 1 \$1;
#X msg 1025 671 /materials/Branco1/grease_pencil/fill_color \$1 \$2 \$3 \$4, f 61;
#X connect 0 0 1 0;
#X connect 2 0 3 0;
#X connect 3 0 0 0;
#X connect 5 0 4 0;
#X connect 6 0 5 0;
#X connect 7 0 6 0;
#X connect 8 0 6 0;
#X connect 9 0 2 0;
#X connect 10 0 9 0;
#X connect 11 0 9 1;
#X connect 13 0 14 0;
#X connect 14 0 18 0;
#X connect 15 0 13 0;
#X connect 16 0 15 0;
#X connect 17 0 15 1;
#X connect 18 0 12 0;
#X connect 20 0 21 0;
#X connect 21 0 25 0;
#X connect 22 0 20 0;
#X connect 23 0 22 0;
#X connect 24 0 22 1;
#X connect 25 0 19 0;
#X connect 27 0 28 0;
#X connect 28 0 32 0;
#X connect 29 0 27 0;
#X connect 30 0 29 0;
#X connect 31 0 29 1;
#X connect 32 0 26 0;
#X connect 33 0 42 0;
#X connect 33 0 41 0;
#X connect 35 0 34 0;
#X connect 36 0 35 0;
#X connect 37 0 36 0;
#X connect 38 0 36 0;
#X connect 39 0 36 0;
#X connect 40 0 39 0;
#X connect 42 0 6 0;
#X connect 43 0 45 0;
#X connect 43 0 44 0;
#X connect 45 0 6 0;
#X connect 47 0 56 0;
#X connect 48 0 47 0;
#X connect 49 0 47 0;
#X connect 50 0 52 0;
#X connect 50 0 51 0;
#X connect 52 0 47 0;
#X connect 53 0 55 0;
#X connect 53 0 54 0;
#X connect 55 0 47 0;
#X connect 56 0 46 0;
#X restore 69 60 pd PAINEL_1;
#N canvas 388 548 997 321 PAINEL_2 0;
#X obj 98 121 s EnviaOSC;
#X obj 98 22 tgl 20 0 empty empty empty 0 -10 0 12 #fcfcfc #000000 #000000 0 1;
#X obj 98 47 == 0;
#X msg 98 92 /objects/LockPic1/hide_viewport;
#X obj 338 121 s EnviaOSC;
#X obj 338 22 tgl 20 0 empty empty empty 0 -10 0 12 #fcfcfc #000000 #000000 0 1;
#X obj 338 47 == 0;
#X obj 588 121 s EnviaOSC;
#X obj 588 22 tgl 20 0 empty empty empty 0 -10 0 12 #fcfcfc #000000 #000000 0 1;
#X obj 588 47 == 0;
#X msg 338 92 /objects/LockPic2/hide_viewport;
#X msg 588 92 /objects/LockPic3/hide_viewport;
#X obj 98 261 s EnviaOSC;
#X obj 98 162 tgl 20 0 empty empty empty 0 -10 0 12 #fcfcfc #000000 #000000 0 1;
#X obj 98 187 == 0;
#X msg 98 232 /objects/olhos/hide_viewport;
#X obj 328 261 s EnviaOSC;
#X obj 328 162 tgl 20 0 empty empty empty 0 -10 0 12 #fcfcfc #000000 #000000 0 1;
#X obj 328 187 == 0;
#X msg 328 232 /objects/Agua2/hide_viewport;
#X obj 728 291 s EnviaOSC;
#X obj 728 192 tgl 20 0 empty empty empty 0 -10 0 12 #fcfcfc #000000 #000000 0 1;
#X obj 728 217 == 0;
#X msg 728 262 /objects/Branco2/hide_viewport;
#X connect 1 0 2 0;
#X connect 2 0 3 0;
#X connect 3 0 0 0;
#X connect 5 0 6 0;
#X connect 6 0 10 0;
#X connect 8 0 9 0;
#X connect 9 0 11 0;
#X connect 10 0 4 0;
#X connect 11 0 7 0;
#X connect 13 0 14 0;
#X connect 14 0 15 0;
#X connect 15 0 12 0;
#X connect 17 0 18 0;
#X connect 18 0 19 0;
#X connect 19 0 16 0;
#X connect 21 0 22 0;
#X connect 22 0 23 0;
#X connect 23 0 20 0;
#X restore 160 62 pd PAINEL_2;
#N canvas 388 548 997 321 PAINEL_3 0;
#X obj 98 121 s EnviaOSC;
#X obj 98 22 tgl 20 0 empty empty empty 0 -10 0 12 #fcfcfc #000000 #000000 0 1;
#X obj 98 47 == 0;
#X msg 98 92 /objects/Montain/hide_viewport;
#X obj 398 131 s EnviaOSC;
#X obj 398 32 tgl 20 0 empty empty empty 0 -10 0 12 #fcfcfc #000000 #000000 0 1;
#X obj 398 57 == 0;
#X msg 398 102 /objects/Branco3/hide_viewport;
#X connect 1 0 2 0;
#X connect 2 0 3 0;
#X connect 3 0 0 0;
#X connect 5 0 6 0;
#X connect 6 0 7 0;
#X connect 7 0 4 0;
#X restore 255 61 pd PAINEL_3;
#N canvas 388 548 997 321 PAINEL_4 0;
#X msg 98 92 /objects/palmeira/hide_viewport \$1;
#X obj 98 121 s EnviaOSC;
#X obj 98 22 tgl 20 0 empty empty empty 0 -10 0 12 #fcfcfc #000000 #000000 0 1;
#X obj 98 47 == 0;
#X obj 445 167 s EnviaOSC;
#X msg 445 131 /materials/palmeira.001/grease_pencil/fill_color \$1 \$2 \$3 \$4, f 61;
#X obj 445 93 pack f f f f;
#X msg 445 53 1 0 0 1;
#X obj 98 291 s EnviaOSC;
#X obj 98 192 tgl 20 0 empty empty empty 0 -10 0 12 #fcfcfc #000000 #000000 0 1;
#X obj 98 217 == 0;
#X msg 98 262 /objects/Branco4/hide_viewport;
#X connect 0 0 1 0;
#X connect 2 0 3 0;
#X connect 3 0 0 0;
#X connect 5 0 4 0;
#X connect 6 0 5 0;
#X connect 7 0 6 0;
#X connect 9 0 10 0;
#X connect 10 0 11 0;
#X connect 11 0 8 0;
#X restore 347 60 pd PAINEL_4;
#X floatatom 518 221 3 0 7 0 - - - 0;
#X obj 553 222 bng 17 250 50 0 cdsnfkj qwrljlq empty 17 7 0 10 #dcdcdc #000000 #000000;
#X text 572 222 save;
#X obj 518 54 vradio 20 1 0 8 empty empty empty 0 -10 0 12 #fcfcfc #000000 #000000 0;
#X msg 42 322 disconnect;
#X msg 239 422 connect 192.168.1.108 9002;
#X obj 752 122 s EnviaOSC;
#X obj 752 23 tgl 20 0 empty empty empty 0 -10 0 12 #fcfcfc #000000 #000000 0 1;
#X obj 752 48 == 0;
#X msg 752 93 /objects/Sol/hide_viewport;
#X obj 988 214 s EnviaOSC;
#X obj 988 115 tgl 20 0 empty empty empty 0 -10 0 12 #fcfcfc #000000 #000000 0 1;
#X obj 988 140 == 0;
#X msg 988 185 /objects/Sol/location \$1 \$2 \$3;
#N canvas 566 308 450 300 PRESETS 0;
#X obj 85 44 inlet;
#X obj 68 153 else/presets /\$0-PalmeiraVer /\$0-PalmeiraCorR /\$0-PalmeiraCorG /\$0-PalmeiraCorB, f 80;
#A saved -empty- \; -empty- \; -empty- \; -empty- \; -empty- \; -empty- \; -empty- \; -empty- \; -empty- \; -empty- \; -empty- \; -empty- \; -empty- \; -empty- \; -empty- \; -empty- \; -empty- \; -empty- \; -empty- \; -empty- \; -empty- \; -empty- \; -empty- \; -empty- \; -empty- \; -empty- \; -empty- \; -empty- \; -empty- \; -empty- \; -empty- \; -empty- \; -empty- \; -empty- \; -empty- \; -empty- \; -empty- \; -empty- \; -empty- \; -empty- \; -empty- \; -empty- \; -empty- \; -empty- \; -empty- \; -empty- \; -empty- \; -empty- \; -empty- \; -empty- \; -empty- \; -empty- \; -empty- \; -empty- \; -empty- \; -empty- \; -empty- \; -empty- \; -empty- \; -empty- \; -empty- \; -empty- \; -empty- \; -empty- \;;
#X connect 0 0 1 0;
#X restore 518 260 pd PRESETS;
#X obj 620 393 gemwin;
#X msg 626 336 create \, 1;
#X obj 759 268 gemhead;
#X obj 782 435 translateXYZ 0 0 0;
#X obj 782 460 colourRGB 1 1 1 1;
#X obj 823 391 * 1;
#X obj 946 392 * 1;
#X floatatom 917 288 5 0 0 0 - - - 0;
#X floatatom 836 302 5 0 0 0 - - - 0;
#X obj 917 312 t b f;
#X obj 481 441 hsv2rgb;
#X floatatom 536 361 5 0 1 1 Value - - 0;
#X floatatom 499 343 5 0 1 1 Saturation - - 0;
#X floatatom 481 325 5 0 1 1 Hue - - 0;
#X obj 481 397 pack 0 0 0;
#X obj 499 378 t b f;
#X obj 536 378 t b f;
#X obj 481 466 unpack f f f;
#X obj 782 485 circle 0.5;
#X obj 842 344 cyclone/poltocar;
#X obj 461 136 vsl 20 170 0 1 0 0 empty empty empty 0 -9 0 12 #fcfcfc #000000 #000000 0 1;
#X connect 0 0 1 0;
#X connect 2 0 4 0;
#X connect 3 0 0 0;
#X connect 4 0 0 0;
#X connect 5 0 0 0;
#X connect 10 0 24 0;
#X connect 11 0 24 0;
#X connect 13 0 10 0;
#X connect 14 0 0 0;
#X connect 15 0 0 0;
#X connect 17 0 18 0;
#X connect 18 0 19 0;
#X connect 19 0 16 0;
#X connect 21 0 22 0;
#X connect 22 0 23 0;
#X connect 23 0 20 0;
#X connect 26 0 25 0;
#X connect 27 0 28 0;
#X connect 28 0 29 0;
#X connect 29 0 43 0;
#X connect 30 0 28 1;
#X connect 31 0 28 2;
#X connect 32 0 34 0;
#X connect 33 0 44 0;
#X connect 34 0 44 0;
#X connect 34 1 44 1;
#X connect 35 0 42 0;
#X connect 36 0 41 0;
#X connect 37 0 40 0;
#X connect 38 0 39 0;
#X connect 39 0 35 0;
#X connect 40 0 39 0;
#X connect 40 1 39 1;
#X connect 41 0 39 0;
#X connect 41 1 39 2;
#X connect 42 0 29 1;
#X connect 42 1 29 2;
#X connect 42 2 29 3;
#X connect 44 0 30 0;
#X connect 44 1 31 0;
#X connect 45 0 38 0;
