#N canvas 124 152 1234 489 12;
#X obj 102 424 mrpeach/udpsend;
#X obj 102 449 tgl 20 0 empty empty empty 0 -10 0 12 #fcfcfc #000000 #000000 0 1;
#X obj 102 259 r EnviaOSC;
#X msg 129 343 connect 192.168.1.140 9001;
#X obj 102 284 mrpeach/packOSC;
#X msg 159 382 connect 192.168.1.108 9001;
#N canvas 388 548 997 321 PAINEL_1 0;
#X msg 98 92 /objects/palmeira/hide_viewport \$1;
#X obj 98 121 s EnviaOSC;
#X obj 98 22 tgl 20 0 empty empty empty 0 -10 0 12 #fcfcfc #000000 #000000 0 1;
#X obj 98 47 == 0;
#X obj 445 167 s EnviaOSC;
#X msg 445 131 /materials/palmeira.001/grease_pencil/fill_color \$1 \$2 \$3 \$4, f 61;
#X obj 445 93 pack f f f f;
#X msg 445 53 1 0 0 1;
#X connect 0 0 1 0;
#X connect 2 0 3 0;
#X connect 3 0 0 0;
#X connect 5 0 4 0;
#X connect 6 0 5 0;
#X connect 7 0 6 0;
#X restore 68 62 pd PAINEL_1;
#N canvas 388 548 997 321 PAINEL_2 0;
#X msg 98 92 /objects/palmeira/hide_viewport \$1;
#X obj 98 121 s EnviaOSC;
#X obj 98 22 tgl 20 0 empty empty empty 0 -10 0 12 #fcfcfc #000000 #000000 0 1;
#X obj 98 47 == 0;
#X obj 445 167 s EnviaOSC;
#X msg 445 131 /materials/palmeira.001/grease_pencil/fill_color \$1 \$2 \$3 \$4, f 61;
#X obj 445 93 pack f f f f;
#X msg 445 53 1 0 0 1;
#X connect 0 0 1 0;
#X connect 2 0 3 0;
#X connect 3 0 0 0;
#X connect 5 0 4 0;
#X connect 6 0 5 0;
#X connect 7 0 6 0;
#X restore 160 62 pd PAINEL_2;
#N canvas 388 548 997 321 PAINEL_3 0;
#X msg 98 92 /objects/palmeira/hide_viewport \$1;
#X obj 98 121 s EnviaOSC;
#X obj 98 22 tgl 20 0 empty empty empty 0 -10 0 12 #fcfcfc #000000 #000000 0 1;
#X obj 98 47 == 0;
#X obj 445 167 s EnviaOSC;
#X msg 445 131 /materials/palmeira.001/grease_pencil/fill_color \$1 \$2 \$3 \$4, f 61;
#X obj 445 93 pack f f f f;
#X msg 445 53 1 0 0 1;
#X connect 0 0 1 0;
#X connect 2 0 3 0;
#X connect 3 0 0 0;
#X connect 5 0 4 0;
#X connect 6 0 5 0;
#X connect 7 0 6 0;
#X restore 255 61 pd PAINEL_3;
#N canvas 388 548 997 321 PAINEL_4 0;
#X msg 98 92 /objects/palmeira/hide_viewport \$1;
#X obj 98 121 s EnviaOSC;
#X obj 98 22 tgl 20 0 empty empty empty 0 -10 0 12 #fcfcfc #000000 #000000 0 1;
#X obj 98 47 == 0;
#X obj 445 167 s EnviaOSC;
#X msg 445 131 /materials/palmeira.001/grease_pencil/fill_color \$1 \$2 \$3 \$4, f 61;
#X obj 445 93 pack f f f f;
#X msg 445 53 1 0 0 1;
#X connect 0 0 1 0;
#X connect 2 0 3 0;
#X connect 3 0 0 0;
#X connect 5 0 4 0;
#X connect 6 0 5 0;
#X connect 7 0 6 0;
#X restore 347 60 pd PAINEL_4;
#X connect 0 0 1 0;
#X connect 2 0 4 0;
#X connect 3 0 0 0;
#X connect 4 0 0 0;
#X connect 5 0 0 0;
