#N canvas 239 0 1202 889 12;
#X obj 102 514 mrpeach/udpsend;
#X obj 102 539 tgl 20 0 empty empty empty 0 -10 0 12 #fcfcfc #000000 #000000 0 1;
#X obj 102 288 r EnviaOSC;
#X obj 102 313 mrpeach/packOSC;
#X msg 139 370 connect 192.168.1.108 9001;
#N canvas 522 32 1042 929 PAINEL_1 0;
#X msg 98 92 /objects/palmeira/hide_viewport \$1;
#X obj 98 121 s EnviaOSC;
#X obj 98 22 tgl 20 0 empty DesligaTUDO empty 0 -10 0 12 #fcfcfc #000000 #000000 0 1;
#X obj 98 47 == 0;
#X obj 445 167 s EnviaOSC;
#X msg 445 131 /materials/palmeira.001/grease_pencil/fill_color \$1 \$2 \$3 \$4, f 61;
#X obj 445 93 pack f f f f;
#X msg 445 13 1 0 0 1;
#X msg 465 43 0 1 0 1;
#X obj 88 -35 metro 2000;
#X obj 91 -79 tgl 20 0 empty empty empty 0 -10 0 12 #fcfcfc #000000 #000000 0 1;
#X floatatom 186 -73 5 0 0 0 - - - 0;
#X obj 108 441 s EnviaOSC;
#X obj 108 342 tgl 20 0 empty DesligaTUDO empty 0 -10 0 12 #fcfcfc #000000 #000000 0 1;
#X obj 108 367 == 0;
#X obj 438 441 s EnviaOSC;
#X obj 438 342 tgl 20 0 empty DesligaTUDO empty 0 -10 0 12 #fcfcfc #000000 #000000 0 1;
#X obj 438 367 == 0;
#X obj 728 441 s EnviaOSC;
#X obj 729 342 tgl 20 0 empty DesligaTUDO empty 0 -10 0 12 #fcfcfc #000000 #000000 0 1;
#X obj 728 367 == 0;
#X obj 315 -386 vsl 20 170 0 1 0 0 empty empty empty 0 -9 0 12 #fcfcfc #000000 #000000 0 1;
#X floatatom 379 -222 5 0 0 0 - - - 0;
#X msg 278 -181 1 0 0 \$1;
#X obj 454 -392 vsl 20 170 0 1 0 0 empty empty empty 0 -9 0 12 #fcfcfc #000000 #000000 0 1;
#X floatatom 518 -228 5 0 0 0 - - - 0;
#X msg 417 -187 1 1 1 \$1;
#X obj 863 868 s EnviaOSC;
#X obj 863 794 pack f f f f;
#X msg 724 735 1 0 0 1;
#X msg 796 727 0 1 0 1;
#X obj 857 506 vsl 20 170 0 1 0 0 empty empty empty 0 -9 0 12 #fcfcfc #000000 #000000 0 1;
#X floatatom 865 684 5 0 0 0 - - - 0;
#X msg 857 711 1 0 0 \$1;
#X obj 943 510 vsl 20 170 0 1 0 0 empty empty empty 0 -9 0 12 #fcfcfc #000000 #000000 0 1;
#X floatatom 951 687 5 0 0 0 - - - 0;
#X msg 943 715 1 1 1 \$1;
#X msg 863 832 /materials/Branco1/grease_pencil/fill_color \$1 \$2 \$3 \$4, f 61;
#X obj 1082 752 hsv2rgb;
#X floatatom 1287 596 5 0 1 1 Value - - 0;
#X floatatom 1158 593 5 0 1 1 Saturation - - 0;
#X floatatom 1082 587 5 0 1 1 Hue - - 0;
#X obj 1082 726 pack 0 0 0;
#X obj 1098 700 t b f;
#X obj 1140 700 t b f;
#X obj 1082 410 vsl 20 170 0 1 0 0 empty empty empty 0 -9 0 12 #fcfcfc #000000 #000000 0 1;
#X msg 1082 777 \$1 \$2 \$3 1;
#X obj 1630 883 bng 20 250 50 0 empty empty empty 0 -10 0 12 #fcfcfc #000000 #000000;
#X obj 1158 416 vsl 20 170 0 1 0 0 empty empty empty 0 -9 0 12 #fcfcfc #000000 #000000 0 1;
#X obj 1287 416 vsl 20 170 0 1 0 0 empty empty empty 0 -9 0 12 #fcfcfc #000000 #000000 0 1;
#X obj 589 -104 hsv2rgb;
#X floatatom 794 -260 5 0 1 1 Value - - 0;
#X floatatom 665 -263 5 0 1 1 Saturation - - 0;
#X floatatom 589 -269 5 0 1 1 Hue - - 0;
#X obj 589 -130 pack 0 0 0;
#X obj 605 -156 t b f;
#X obj 647 -156 t b f;
#X obj 589 -446 vsl 20 170 0 1 0 0 empty empty empty 0 -9 0 12 #fcfcfc #000000 #000000 0 1;
#X msg 589 -79 \$1 \$2 \$3 1;
#X obj 665 -440 vsl 20 170 0 1 0 0 empty empty empty 0 -9 0 12 #fcfcfc #000000 #000000 0 1;
#X obj 794 -440 vsl 20 170 0 1 0 0 empty empty empty 0 -9 0 12 #fcfcfc #000000 #000000 0 1;
#X msg 728 412 /objects/Branco1/hide_viewport \$1;
#X msg 438 412 /objects/Agua/hide_viewport \$1;
#X msg 108 412 /objects/trrees/hide_viewport \$1;
#X obj 62 -310 s LigaPainel1;
#X obj 62 -390 bng 60 250 50 0 empty empty empty 0 -10 0 12 #fcfcfc #000000 #000000;
#X obj 491 330 r LigaPainel1;
#X msg 491 355 1;
#X obj 190 319 r LigaPainel1;
#X msg 179 372 1;
#X obj 186 345 delay 500;
#X obj 199 -19 r LigaPainel1;
#X msg 188 34 1;
#X obj 195 7 delay 1000;
#X obj 780 279 r LigaFundos;
#X msg 775 304 1;
#X connect 0 0 1 0;
#X connect 2 0 3 0;
#X connect 3 0 0 0;
#X connect 5 0 4 0;
#X connect 6 0 5 0;
#X connect 7 0 6 0;
#X connect 8 0 6 0;
#X connect 9 0 2 0;
#X connect 10 0 9 0;
#X connect 11 0 9 1;
#X connect 13 0 14 0;
#X connect 14 0 63 0;
#X connect 16 0 17 0;
#X connect 17 0 62 0;
#X connect 19 0 20 0;
#X connect 20 0 61 0;
#X connect 21 0 23 0;
#X connect 21 0 22 0;
#X connect 23 0 6 0;
#X connect 24 0 26 0;
#X connect 24 0 25 0;
#X connect 26 0 6 0;
#X connect 28 0 37 0;
#X connect 29 0 28 0;
#X connect 30 0 28 0;
#X connect 31 0 33 0;
#X connect 31 0 32 0;
#X connect 33 0 28 0;
#X connect 34 0 36 0;
#X connect 34 0 35 0;
#X connect 36 0 28 0;
#X connect 37 0 27 0;
#X connect 38 0 46 0;
#X connect 39 0 44 0;
#X connect 40 0 43 0;
#X connect 41 0 42 0;
#X connect 42 0 38 0;
#X connect 43 0 42 0;
#X connect 43 1 42 1;
#X connect 44 0 42 0;
#X connect 44 1 42 2;
#X connect 45 0 41 0;
#X connect 46 0 37 0;
#X connect 48 0 40 0;
#X connect 49 0 39 0;
#X connect 50 0 58 0;
#X connect 51 0 56 0;
#X connect 52 0 55 0;
#X connect 53 0 54 0;
#X connect 54 0 50 0;
#X connect 55 0 54 0;
#X connect 55 1 54 1;
#X connect 56 0 54 0;
#X connect 56 1 54 2;
#X connect 57 0 53 0;
#X connect 58 0 5 0;
#X connect 59 0 52 0;
#X connect 60 0 51 0;
#X connect 61 0 18 0;
#X connect 62 0 15 0;
#X connect 63 0 12 0;
#X connect 65 0 64 0;
#X connect 66 0 67 0;
#X connect 67 0 16 0;
#X connect 68 0 70 0;
#X connect 69 0 13 0;
#X connect 70 0 69 0;
#X connect 71 0 73 0;
#X connect 72 0 2 0;
#X connect 73 0 72 0;
#X connect 74 0 75 0;
#X connect 75 0 19 0;
#X restore 69 60 pd PAINEL_1;
#N canvas 117 148 1358 496 PAINEL_2 0;
#X obj 102 287 s EnviaOSC;
#X obj 102 188 tgl 20 0 empty DesligaTUDO empty 0 -10 0 12 #fcfcfc #000000 #000000 0 1;
#X obj 102 213 == 0;
#X obj 372 287 s EnviaOSC;
#X obj 372 188 tgl 20 0 empty DesligaTUDO empty 0 -10 0 12 #fcfcfc #000000 #000000 0 1;
#X obj 372 213 == 0;
#X obj 657 285 s EnviaOSC;
#X obj 657 185 tgl 20 0 empty DesligaTUDO empty 0 -10 0 12 #fcfcfc #000000 #000000 0 1;
#X obj 657 211 == 0;
#X obj 132 427 s EnviaOSC;
#X obj 132 328 tgl 20 0 empty DesligaTUDO empty 0 -10 0 12 #fcfcfc #000000 #000000 0 1;
#X obj 132 353 == 0;
#X obj 367 428 s EnviaOSC;
#X obj 367 329 tgl 20 0 empty DesligaTUDO empty 0 -10 0 12 #fcfcfc #000000 #000000 0 1;
#X obj 367 354 == 0;
#X obj 762 457 s EnviaOSC;
#X obj 762 358 tgl 20 0 empty DesligaTUDO empty 0 -10 0 12 #fcfcfc #000000 #000000 0 1;
#X obj 762 383 == 0;
#X msg 657 256 /objects/LockPic3/hide_viewport \$1;
#X msg 372 258 /objects/LockPic2/hide_viewport \$1;
#X msg 102 259 /objects/LockPic1/hide_viewport \$1;
#X msg 132 398 /objects/olhos/hide_viewport \$1;
#X msg 367 399 /objects/Agua2/hide_viewport \$1;
#X msg 762 428 /objects/Branco2/hide_viewport \$1;
#X obj 48 16 bng 60 250 50 0 empty empty empty 0 -10 0 12 #fcfcfc #000000 #000000;
#X obj 48 96 s LigaPainel2;
#X obj 446 327 r LigaPainel2;
#X msg 446 352 1;
#X obj 219 315 r LigaPainel2;
#X obj 219 340 delay 500;
#X msg 219 365 1;
#X obj 719 91 r LigaPainel2;
#X msg 721 143 1;
#X obj 719 116 delay 1000;
#X obj 804 293 r LigaFundos;
#X msg 805 319 1;
#X obj 466 76 metro 30000;
#X obj 468 36 tgl 20 0 empty DesligaTUDO empty 0 -10 0 12 #fcfcfc #000000 #000000 0 1;
#X obj 929 282 s EnviaOSC;
#X obj 929 182 tgl 20 0 empty DesligaTUDO empty 0 -10 0 12 #fcfcfc #000000 #000000 0 1;
#X obj 929 208 == 0;
#X msg 929 253 /objects/LockPic4/hide_viewport \$1;
#X floatatom 268 116 5 0 0 0 - - - 0;
#X obj 274 49 bng 20 250 50 0 empty empty empty 0 -10 0 12 #fcfcfc #000000 #000000;
#X obj 115 155 == 0;
#X obj 314 131 t f f f f;
#X obj 284 182 == 1;
#X obj 578 179 == 2;
#X obj 841 185 == 3;
#X obj 268 91 else/count 2;
#X connect 1 0 2 0;
#X connect 2 0 20 0;
#X connect 4 0 5 0;
#X connect 5 0 19 0;
#X connect 7 0 8 0;
#X connect 8 0 18 0;
#X connect 10 0 11 0;
#X connect 11 0 21 0;
#X connect 13 0 14 0;
#X connect 14 0 22 0;
#X connect 16 0 17 0;
#X connect 17 0 23 0;
#X connect 18 0 6 0;
#X connect 19 0 3 0;
#X connect 20 0 0 0;
#X connect 21 0 9 0;
#X connect 22 0 12 0;
#X connect 23 0 15 0;
#X connect 24 0 25 0;
#X connect 26 0 27 0;
#X connect 27 0 13 0;
#X connect 28 0 29 0;
#X connect 29 0 30 0;
#X connect 30 0 10 0;
#X connect 31 0 33 0;
#X connect 32 0 7 0;
#X connect 33 0 32 0;
#X connect 34 0 35 0;
#X connect 35 0 16 0;
#X connect 36 0 49 0;
#X connect 37 0 36 0;
#X connect 39 0 40 0;
#X connect 40 0 41 0;
#X connect 41 0 38 0;
#X connect 42 0 45 0;
#X connect 43 0 49 0;
#X connect 44 0 1 0;
#X connect 45 0 44 0;
#X connect 45 1 46 0;
#X connect 45 2 47 0;
#X connect 45 3 48 0;
#X connect 46 0 4 0;
#X connect 47 0 7 0;
#X connect 48 0 39 0;
#X connect 49 0 42 0;
#X restore 160 62 pd PAINEL_2;
#N canvas 388 548 997 321 PAINEL_3 0;
#X obj 98 121 s EnviaOSC;
#X obj 98 22 tgl 20 0 empty DesligaTUDO empty 0 -10 0 12 #fcfcfc #000000 #000000 0 1;
#X obj 98 47 == 0;
#X obj 398 131 s EnviaOSC;
#X obj 398 32 tgl 20 0 empty DesligaTUDO empty 0 -10 0 12 #fcfcfc #000000 #000000 0 1;
#X obj 398 57 == 0;
#X msg 98 92 /objects/Montain/hide_viewport \$1;
#X msg 398 102 /objects/Branco3/hide_viewport \$1;
#X obj 498 9 r LigaFundos;
#X msg 493 34 1;
#X connect 1 0 2 0;
#X connect 2 0 6 0;
#X connect 4 0 5 0;
#X connect 5 0 7 0;
#X connect 6 0 0 0;
#X connect 7 0 3 0;
#X connect 8 0 9 0;
#X connect 9 0 4 0;
#X restore 255 61 pd PAINEL_3;
#N canvas 434 139 997 626 PAINEL_4 0;
#X obj 445 167 s EnviaOSC;
#X msg 445 131 /materials/palmeira.001/grease_pencil/fill_color \$1 \$2 \$3 \$4, f 61;
#X obj 445 93 pack f f f f;
#X msg 445 53 1 0 0 1;
#X obj 106 423 s EnviaOSC;
#X obj 106 324 tgl 20 0 empty DesligaTUDO empty 0 -10 0 12 #fcfcfc #000000 #000000 0 1;
#X obj 106 349 == 0;
#X msg 106 394 /objects/Branco4/hide_viewport \$1;
#X obj 98 247 r LigaFundos;
#X msg 93 272 1;
#X connect 1 0 0 0;
#X connect 2 0 1 0;
#X connect 3 0 2 0;
#X connect 5 0 6 0;
#X connect 6 0 7 0;
#X connect 7 0 4 0;
#X connect 8 0 9 0;
#X connect 9 0 5 0;
#X restore 347 60 pd PAINEL_4;
#X floatatom 912 641 3 0 7 0 - - - 0;
#X obj 947 642 bng 17 250 50 0 cdsnfkj qwrljlq empty 17 7 0 10 #dcdcdc #000000 #000000;
#X text 966 642 save;
#X obj 912 474 vradio 20 1 0 8 empty empty empty 0 -10 0 12 #fcfcfc #000000 #000000 0;
#X msg 72 251 disconnect;
#X msg 147 396 connect 192.168.1.108 9002;
#X obj 558 160 s EnviaOSC;
#X obj 558 61 tgl 20 0 empty DesligaTUDO empty 0 -10 0 12 #fcfcfc #000000 #000000 0 1;
#X obj 558 86 == 0;
#X obj 806 325 s EnviaOSC;
#X msg 806 296 /objects/Sol/location \$1 \$2 \$3;
#N canvas 566 308 450 300 PRESETS 0;
#X obj 85 44 inlet;
#X obj 68 153 else/presets /\$0-PalmeiraVer /\$0-PalmeiraCorR /\$0-PalmeiraCorG /\$0-PalmeiraCorB, f 80;
#A saved -empty- \; -empty- \; -empty- \; -empty- \; -empty- \; -empty- \; -empty- \; -empty- \; -empty- \; -empty- \; -empty- \; -empty- \; -empty- \; -empty- \; -empty- \; -empty- \; -empty- \; -empty- \; -empty- \; -empty- \; -empty- \; -empty- \; -empty- \; -empty- \; -empty- \; -empty- \; -empty- \; -empty- \; -empty- \; -empty- \; -empty- \; -empty- \; -empty- \; -empty- \; -empty- \; -empty- \; -empty- \; -empty- \; -empty- \; -empty- \; -empty- \; -empty- \; -empty- \; -empty- \; -empty- \; -empty- \; -empty- \; -empty- \; -empty- \; -empty- \; -empty- \; -empty- \; -empty- \; -empty- \; -empty- \; -empty- \; -empty- \; -empty- \; -empty- \; -empty- \; -empty- \; -empty- \; -empty- \; -empty- \;;
#X connect 0 0 1 0;
#X restore 912 680 pd PRESETS;
#X obj 857 227 * 1;
#X floatatom 951 124 12 0 0 0 - - - 0;
#X floatatom 870 138 5 0 0 0 - - - 0;
#X obj 951 148 t b f;
#X obj 876 180 cyclone/poltocar;
#X msg 154 423 connect 192.168.1.109 9002;
#N canvas 566 308 450 300 GEM 0;
#X obj 47 133 gemwin;
#X msg 45 53 create \, 1;
#X obj 233 52 gemhead;
#X obj 232 98 translateXYZ 0 0 0;
#X obj 232 123 colourRGB 1 1 1 1;
#X obj 232 148 circle 0.5;
#X msg 59 80 0 \, destroy;
#X connect 1 0 0 0;
#X connect 2 0 3 0;
#X connect 3 0 4 0;
#X connect 4 0 5 0;
#X connect 6 0 0 0;
#X restore 71 603 pd GEM TESTER;
#X msg 161 452 connect 192.168.31.101 9002;
#X msg 129 343 connect 192.168.31.150 4560;
#X obj 460 462 s LigaPainel1;
#X obj 460 382 bng 60 250 50 0 empty empty empty 0 -10 0 12 #fcfcfc #000000 #000000;
#X obj 572 383 bng 60 250 50 0 empty empty empty 0 -10 0 12 #fcfcfc #000000 #000000;
#X obj 572 463 s LigaPainel2;
#X obj 458 230 bng 60 250 50 0 empty empty empty 0 -10 0 12 #fcfcfc #000000 #000000;
#X obj 458 310 s LigaFundos;
#X obj 65 97 bng 60 250 50 0 empty empty empty 0 -10 0 12 #fcfcfc #000000 #000000;
#X obj 65 197 s DesligaTUDO;
#X msg 67 162 0;
#X msg 166 480 connect 192.168.31.112 9002;
#X msg 558 131 /objects/Sol/hide_viewport \$1;
#X floatatom 1028 204 5 0 0 0 - - - 0;
#X obj 969 57 line 0 1;
#X obj 448 503 bng 60 250 50 0 empty empty empty 0 -10 0 12 #fcfcfc #000000 #000000;
#X obj 448 583 s LigaPainel3;
#X obj 843 34 loadbang;
#X msg 1077 66 stop;
#X obj 725 177 vsl 20 170 0 3.5 0 0 empty empty empty 0 -9 0 12 #fcfcfc #000000 #000000 0 1;
#X obj 980 228 * 0.55;
#X msg 848 78 2.35;
#X msg 969 32 -0.17 \, 3.65 600000;
#X obj 806 266 pack f f 0.02;
#X connect 0 0 1 0;
#X connect 2 0 3 0;
#X connect 3 0 0 0;
#X connect 4 0 0 0;
#X connect 9 0 20 0;
#X connect 10 0 20 0;
#X connect 12 0 9 0;
#X connect 13 0 0 0;
#X connect 14 0 0 0;
#X connect 16 0 17 0;
#X connect 17 0 40 0;
#X connect 19 0 18 0;
#X connect 21 0 51 0;
#X connect 22 0 24 0;
#X connect 23 0 25 0;
#X connect 24 0 25 0;
#X connect 24 1 25 1;
#X connect 25 0 21 0;
#X connect 25 1 48 0;
#X connect 26 0 0 0;
#X connect 28 0 0 0;
#X connect 29 0 0 0;
#X connect 31 0 30 0;
#X connect 32 0 33 0;
#X connect 34 0 35 0;
#X connect 36 0 38 0;
#X connect 38 0 37 0;
#X connect 39 0 0 0;
#X connect 40 0 15 0;
#X connect 41 0 48 1;
#X connect 42 0 22 0;
#X connect 43 0 44 0;
#X connect 45 0 49 0;
#X connect 46 0 42 0;
#X connect 47 0 22 0;
#X connect 48 0 51 1;
#X connect 49 0 23 0;
#X connect 50 0 42 0;
#X connect 51 0 19 0;
